<svg width="55" height="55" viewBox="0 0 55 55" fill="none" xmlns="http://www.w3.org/2000/svg">
<path d="M28.125 18.7501C29.8509 18.7501 31.25 17.3509 31.25 15.625C31.25 13.8991 29.8509 12.5 28.125 12.5C26.3991 12.5 24.9999 13.8991 24.9999 15.625C24.9999 17.3509 26.3991 18.7501 28.125 18.7501Z" fill="#FF7A00"/>
<path d="M34.9999 41.25H31.2501V21.25H21.25V23.75H25V41.25H21.25V43.7499H34.9999V41.25Z" fill="#FF7A00"/>
<path d="M55 27.5C55 12.3125 42.6875 0 27.5 0C12.3125 0 0 12.3125 0 27.5C0 42.6875 12.3125 55 27.5 55C42.6875 55 55 42.6875 55 27.5ZM2.49998 27.5C2.49998 13.6925 13.6925 2.49998 27.5 2.49998C41.3075 2.49998 52.5 13.6925 52.5 27.5C52.5 41.3075 41.3075 52.5 27.5 52.5C13.6925 52.5 2.49998 41.3075 2.49998 27.5Z" fill="#FF7A00"/>
</svg>
