<svg width="26" height="35" viewBox="0 0 26 35" fill="none" xmlns="http://www.w3.org/2000/svg">
<g clip-path="url(#clip0_16_22)">
<path fill-rule="evenodd" clip-rule="evenodd" d="M22.4382 2.10806C22.4382 3.6321 22.4382 5.15703 22.4382 6.68284C21.6063 6.10852 20.7209 5.65145 19.7826 5.31187C19.7826 4.38571 19.7826 3.45923 19.7826 2.53235H2.60225V28.429H19.7826C19.7826 27.5021 19.7826 26.5755 19.7826 25.6496C20.7209 25.3093 21.6063 24.8524 22.4382 24.2784C22.4382 27.1476 22.4382 30.0172 22.4382 32.8874C22.439 33.4402 22.2254 33.913 21.7972 34.305C21.3677 34.6975 20.8504 34.8934 20.2454 34.8926H2.14434C1.5393 34.8934 1.02203 34.6975 0.59262 34.305C0.166181 33.9129 -0.045903 33.4402 -0.0432804 32.8874V2.10806C-0.0458156 1.55497 0.166181 1.08244 0.59262 0.690284C1.02203 0.296209 1.5393 0.0988106 2.14434 0.0980091H20.2454C20.8504 0.0987304 21.3677 0.296209 21.7972 0.690284C22.2254 1.08244 22.439 1.55497 22.4382 2.10806ZM15.5396 30.7281H6.84513C6.98903 30.8965 7.14665 31.0597 7.31834 31.2178C8.39074 32.1991 9.68282 32.6888 11.1949 32.6868C11.2204 32.6868 11.2458 32.6868 11.2713 32.6868H11.2765C12.7523 32.6722 14.0174 32.1826 15.0716 31.2178C15.2415 31.0597 15.3974 30.8964 15.5396 30.7281Z" fill="#FF7A00"/>
<path fill-rule="evenodd" clip-rule="evenodd" d="M19.7827 7.12596C20.7371 7.55297 21.6223 8.13283 22.4383 8.86544C22.4673 8.89204 22.4959 8.91849 22.5247 8.9447C24.4951 10.7497 25.4804 12.9291 25.4806 15.4831C25.4804 18.0371 24.4952 20.2164 22.5247 22.0213C22.4959 22.0478 22.4673 22.074 22.4383 22.1006C21.6223 22.8336 20.7371 23.4133 19.7827 23.8401C18.452 24.436 16.9868 24.7343 15.387 24.7354C12.784 24.7347 10.537 23.9465 8.64622 22.3711C8.5123 22.2583 8.38003 22.1418 8.24942 22.0213C6.28061 20.2164 5.29713 18.0371 5.29862 15.4831C5.29713 12.9291 6.28061 10.7496 8.24942 8.9447C10.22 7.13702 12.5993 6.23234 15.387 6.23057C16.9868 6.23162 18.452 6.53008 19.7827 7.12596ZM21.3037 10.5398C20.8174 10.8695 20.3104 11.1524 19.7827 11.3885C18.7412 11.8561 17.6185 12.1421 16.4148 12.2465V14.5409H23.3286C23.2098 13.6178 22.9129 12.7627 22.4383 11.976C22.348 11.8255 22.2514 11.6779 22.1484 11.533V11.5237C22.1362 11.5051 22.1261 11.4865 22.1177 11.4678C21.877 11.1453 21.6057 10.836 21.3037 10.5398ZM16.4148 10.3299C17.6008 10.2016 18.6861 9.8457 19.6708 9.26184C18.6864 8.67942 17.6012 8.32502 16.4148 8.19847V10.3299ZM14.339 8.19847C13.1537 8.32566 12.0702 8.68158 11.0881 9.26656C12.0711 9.84786 13.1548 10.2023 14.339 10.3299V8.19847ZM14.339 12.2465C12.5268 12.0893 10.8989 11.5203 9.45504 10.5398C9.13604 10.8579 8.85455 11.1919 8.61047 11.5425L8.6054 11.547H8.60033C8.59465 11.5534 8.58958 11.5595 8.58494 11.5658C7.94878 12.462 7.56212 13.4538 7.42504 14.5409H14.3389V12.2465H14.339ZM21.2987 20.431C21.7525 19.9805 22.1322 19.5015 22.4383 18.9945C22.912 18.2102 23.2089 17.3583 23.3286 16.4391H16.4148V18.7287C17.6191 18.8322 18.7418 19.1168 19.7827 19.5822C20.309 19.8194 20.8143 20.1024 21.2987 20.431ZM14.339 20.6456C13.1533 20.772 12.0697 21.1265 11.0881 21.7089C12.0697 22.2928 13.1534 22.6488 14.339 22.7768V20.6456ZM16.4148 22.7768C17.6012 22.6489 18.6867 22.2929 19.6708 21.7089C18.6863 21.1265 17.601 20.7721 16.4148 20.6456V22.7768ZM9.4602 20.431C10.9014 19.4518 12.5277 18.8845 14.3391 18.7288V16.4392H7.44043C7.63205 17.9518 8.30528 19.2824 9.4602 20.431Z" fill="#FF7A00"/>
</g>
<defs>
<clipPath id="clip0_16_22">
<rect width="26" height="35" fill="white"/>
</clipPath>
</defs>
</svg>
