<svg width="18" height="32" viewBox="0 0 18 32" fill="none" xmlns="http://www.w3.org/2000/svg">
<path d="M7.5 3.5H10.5" stroke="#FF7A00" stroke-miterlimit="10" stroke-linecap="round" stroke-linejoin="round"/>
<path d="M17.5 27.5C17.5 29.15 16.15 30.5 14.5 30.5H3.5C1.85 30.5 0.5 29.15 0.5 27.5V4.5C0.5 2.85 1.85 1.5 3.5 1.5H14.5C16.15 1.5 17.5 2.85 17.5 4.5V27.5Z" stroke="#FF7A00" stroke-miterlimit="10" stroke-linecap="round" stroke-linejoin="round"/>
<path d="M10 15.5C10 14.947 9.553 14.5 9 14.5C8.447 14.5 8 14.947 8 15.5" stroke="#FF7A00" stroke-miterlimit="10" stroke-linecap="round" stroke-linejoin="round"/>
<path d="M13.5 12.979C13.77 12.979 14 13.208 14 13.479C14 13.75 13.77 13.979 13.5 13.979C13.23 13.979 13 13.75 13 13.479C13 13.208 13.23 12.979 13.5 12.979Z" stroke="#FF7A00" stroke-miterlimit="10" stroke-linecap="round" stroke-linejoin="round"/>
<path d="M4.5 12.979C4.77 12.979 5 13.208 5 13.479C5 13.75 4.77 13.979 4.5 13.979C4.23 13.979 4 13.75 4 13.479C4 13.208 4.23 12.979 4.5 12.979Z" stroke="#FF7A00" stroke-miterlimit="10" stroke-linecap="round" stroke-linejoin="round"/>
<path d="M7.5 3.5H10.5" stroke="#FF7A00" stroke-miterlimit="10" stroke-linecap="round" stroke-linejoin="round"/>
<path d="M17.5 27.5C17.5 29.15 16.15 30.5 14.5 30.5H3.5C1.85 30.5 0.5 29.15 0.5 27.5V4.5C0.5 2.85 1.85 1.5 3.5 1.5H14.5C16.15 1.5 17.5 2.85 17.5 4.5V27.5Z" stroke="#FF7A00" stroke-miterlimit="10" stroke-linecap="round" stroke-linejoin="round"/>
<path d="M10 15.5C10 14.947 9.553 14.5 9 14.5C8.447 14.5 8 14.947 8 15.5" stroke="#FF7A00" stroke-miterlimit="10" stroke-linecap="round" stroke-linejoin="round"/>
<path d="M13.5 12.979C13.77 12.979 14 13.208 14 13.479C14 13.75 13.77 13.979 13.5 13.979C13.23 13.979 13 13.75 13 13.479C13 13.208 13.23 12.979 13.5 12.979Z" stroke="#FF7A00" stroke-miterlimit="10" stroke-linecap="round" stroke-linejoin="round"/>
<path d="M4.5 12.979C4.77 12.979 5 13.208 5 13.479C5 13.75 4.77 13.979 4.5 13.979C4.23 13.979 4 13.75 4 13.479C4 13.208 4.23 12.979 4.5 12.979Z" stroke="#FF7A00" stroke-miterlimit="10" stroke-linecap="round" stroke-linejoin="round"/>
</svg>
