<svg width="34" height="56" viewBox="0 0 34 56" fill="none" xmlns="http://www.w3.org/2000/svg">
<path d="M32.13 9.71997C29.8 5.46997 27.05 1.80997 20.84 0.519974C18.1799 -0.00481218 15.4352 0.082615 12.8138 0.775634C10.1925 1.46865 7.76323 2.74909 5.71001 4.51997C4.16926 5.73984 2.90469 7.27254 1.99973 9.01696C1.09477 10.7614 0.569985 12.6779 0.460007 14.64C0.453156 17.4277 1.20315 20.165 2.63001 22.56C3.46001 23.39 11.71 23.22 12.34 22.81C12.97 22.4 12.21 21.27 13.05 19.39C13.5045 18.4787 14.1972 17.7075 15.0546 17.1582C15.9121 16.6089 16.9022 16.3019 17.92 16.27C19.63 16.35 20.3 17.27 21.05 19.1C21.8 20.93 20.71 22.6 19.42 23.97C17.2887 26.0933 15.6174 28.6327 14.51 31.43C13 35.35 12.59 40.52 13.3 42.22C14.01 43.92 15.21 44.02 16.67 44.14C18.13 44.26 22.17 44.43 23.46 43.72C24.75 43.01 24.8 42.27 25.09 39.35C25.4585 36.5575 26.188 33.8247 27.26 31.22C28.38 28 31.51 23.85 32.46 21C33.41 18.15 34.46 14 32.13 9.71997ZM31.21 16.14C31.0703 17.2021 30.836 18.2495 30.51 19.27C30.51 19.27 28.42 13.18 27.76 13.06C27.1 12.94 27.09 13.56 27.17 13.68C27.25 13.8 30.42 20.39 30.34 20.68C30.26 20.97 29.67 22.68 29.59 22.35C29.51 22.02 27.59 17.14 27.13 17.14C26.67 17.14 26.21 17.51 26.38 17.76C26.55 18.01 29.17 22.81 29.01 23.31C28.85 23.81 28.13 25.31 28.13 25.01C27.6464 23.5425 26.9741 22.1441 26.13 20.85C25.8 20.72 25.26 21.01 25.51 21.26C26.3718 22.7659 27.0819 24.3537 27.63 26C27.51 26.25 27.01 27.12 26.88 27C26.75 26.88 25.3 23.25 24.88 23.25C24.46 23.25 24.3 23.54 24.34 23.66C25.0484 25.1403 25.6727 26.6594 26.21 28.21C26.13 28.5 25.46 30.29 25.38 30.12C25.3 29.95 23.59 25.46 23.3 25.5C23.01 25.54 22.84 26.37 22.84 26.37C22.84 26.37 25.09 30.79 25.05 31.08C24.3309 32.7366 23.7587 34.4532 23.34 36.21C23.1832 37.3884 22.9595 38.5569 22.67 39.71C22.67 39.58 19.88 33.91 19.76 33.91C19.64 33.91 18.76 34.29 19.09 34.79C19.42 35.29 21.71 39.79 22.01 40.25C22.31 40.71 22.59 41 22.34 41.46C22.09 41.92 21.8 42.33 21.42 42.29C21.1696 42.2523 20.9287 42.1675 20.71 42.04C20.71 42.04 21.3 41.79 21.13 41.5C20.4612 40.3054 19.8765 39.0658 19.38 37.79C19.01 36.62 19.01 36.58 18.67 36.58C18.33 36.58 18.05 37 18.3 37.58C18.55 38.16 20.3 41.79 20.3 42C20.3 42.21 19.05 42.33 19.05 42.12C19.05 41.91 17.8 39 17.3 39C16.8 39 16.63 39.63 16.84 39.8C17.05 39.97 18.26 42.3 17.92 42.25C17.58 42.2 16.3 42.34 15.92 41.84C15.54 41.34 15.13 39.84 15.59 36.59C15.9484 33.2386 17.1985 30.0444 19.21 27.34C21.34 24.67 23.51 22.84 23.21 19.67C22.91 16.5 21 14.35 18.63 14.31C16.26 14.27 13.17 14.77 11.88 17.31C10.59 19.85 11.09 21.31 10.67 21.39C10.25 21.47 4.51001 21.26 4.51001 21.26C3.06579 18.675 2.6345 15.6453 3.30001 12.76C3.73173 10.9523 4.54604 9.25819 5.68802 7.79191C6.82999 6.32562 8.27309 5.12124 9.92001 4.25997C11.8018 3.21298 13.8775 2.56118 16.02 2.34452C18.1625 2.12787 20.3267 2.3509 22.38 2.99997C24.2197 3.57201 25.8971 4.57297 27.2741 5.9204C28.6511 7.26782 29.6882 8.92314 30.3 10.75C31.13 13.22 31.46 14.31 31.21 16.14ZM27.88 9.99997C27.7708 10.0755 27.6806 10.1753 27.6164 10.2915C27.5522 10.4078 27.5158 10.5373 27.51 10.67C27.51 10.84 27.59 11 28.51 11.96C29.43 12.92 30.3 16.59 30.51 16.84C30.72 17.09 30.51 16.84 30.76 16.67C31.01 16.5 30.38 14.8 29.84 12.67C29.3 10.54 28.22 9.80997 27.88 9.99997ZM22.34 28.43C22.1672 28.4552 22.0063 28.533 21.8792 28.6529C21.7522 28.7728 21.6652 28.9289 21.63 29.1C22.1199 30.4786 22.7184 31.8161 23.42 33.1C23.59 33.18 23.8 33.02 23.88 32.77C23.96 32.52 22.6 28.43 22.34 28.43ZM20.09 31.14C20.745 32.9482 21.5098 34.7149 22.38 36.43C22.59 36.68 22.55 36.43 22.76 36.02C22.97 35.61 21.09 30.7 20.88 30.68C20.7154 30.6533 20.5467 30.6846 20.4026 30.7685C20.2586 30.8524 20.1481 30.9837 20.09 31.14ZM6.30001 9.99997C5.92001 10.25 5.09001 11.59 4.84001 14.21C4.59001 16.83 5.17001 18.04 5.46001 18.21C5.75001 18.38 6.13001 18.38 6.30001 17.8C6.47001 17.22 5.71001 16.42 5.84001 15.17C6.08663 13.5193 6.65397 11.9328 7.51001 10.5C8.26001 9.38997 6.67001 9.71997 6.30001 9.99997ZM16.63 46.06C15.34 46.31 11.76 47.22 11.46 49.93C11.16 52.64 11.84 55.31 15.8 55.77C19.76 56.23 23.09 54.64 23.8 53.68C24.3483 52.9785 24.6832 52.1341 24.7648 51.2476C24.8463 50.361 24.6711 49.4697 24.26 48.68C23.17 46.35 19.49 45.5 16.63 46.06ZM22.55 51.14C22.05 51.14 21.55 48.89 21.05 48.85C20.55 48.81 19.88 48.64 20.34 49.27C20.8 49.9 22.09 52.39 21.8 52.52C21.51 52.65 21.13 53.18 21.05 53.06C20.97 52.94 19.84 49.89 19.55 49.81C19.26 49.73 18.71 50.06 18.92 50.35C19.13 50.64 20.13 53.35 20.13 53.35C20.13 53.35 19.76 53.85 19.55 53.52C19.1806 52.6574 18.7632 51.8161 18.3 51C18.13 51 17.59 51.29 17.67 51.5C17.75 51.71 18.92 54 18.46 54C17.0126 54.2187 15.5349 53.9061 14.3 53.12C12.55 51.87 13.38 48.45 17.59 47.58C18.9752 47.3303 20.4037 47.6124 21.59 48.37C22.09 48.85 23.05 51.1 22.55 51.14ZM16 49.43C15.5028 49.7284 15.1286 50.1949 14.9453 50.7451C14.7619 51.2952 14.7813 51.8929 15 52.43C15.0318 52.5704 15.0936 52.7023 15.1811 52.8166C15.2687 52.931 15.3798 53.0251 15.5071 53.0925C15.6343 53.1599 15.7746 53.1991 15.9184 53.2072C16.0621 53.2154 16.2059 53.1925 16.34 53.14C16.71 53.02 16.21 52.73 16.04 51.93C15.87 51.13 16.46 50.48 16.63 49.93C16.8 49.38 16.21 49.27 16 49.43Z" fill="#FF7A00"/>
</svg>
